# Blender v2.79 (sub 0) OBJ File: ''
# www.blender.org
mtllib lamp.mtl
o Cylinder
v -3.013448 0.272224 -0.341019
v 3.013448 0.271123 -0.341019
v -3.013458 0.219752 -0.334466
v 3.013438 0.218652 -0.334466
v -3.013467 0.169297 -0.315060
v 3.013429 0.168197 -0.315060
v -3.013475 0.122797 -0.283547
v 3.013421 0.121697 -0.283547
v -3.013483 0.082040 -0.241137
v 3.013413 0.080940 -0.241137
v -3.013489 0.048591 -0.189460
v 3.013407 0.047491 -0.189460
v -3.013493 0.023737 -0.130502
v 3.013403 0.022636 -0.130502
v -3.013496 0.008431 -0.066529
v 3.013400 0.007331 -0.066529
v -3.013497 0.003263 -0.000000
v 3.013399 0.002163 -0.000000
v -3.013496 0.008431 0.066529
v 3.013400 0.007331 0.066529
v -3.013493 0.023737 0.130502
v 3.013403 0.022636 0.130502
v -3.013489 0.048591 0.189460
v 3.013407 0.047491 0.189460
v -3.013483 0.082040 0.241137
v 3.013413 0.080940 0.241137
v -3.013475 0.122797 0.283547
v 3.013421 0.121697 0.283547
v -3.013467 0.169297 0.315060
v 3.013429 0.168197 0.315060
v -3.013458 0.219752 0.334466
v 3.013438 0.218652 0.334466
v -3.013448 0.272224 0.341019
v 3.013448 0.271123 0.341019
v -3.013438 0.324695 0.334466
v 3.013458 0.323595 0.334466
v -3.013429 0.375150 0.315060
v 3.013467 0.374050 0.315060
v -3.013421 0.421650 0.283547
v 3.013475 0.420550 0.283547
v -3.013413 0.462407 0.241137
v 3.013483 0.461307 0.241137
v -3.013407 0.495856 0.189460
v 3.013489 0.494756 0.189460
v -3.013403 0.520711 0.130502
v 3.013493 0.519610 0.130502
v -3.013400 0.536016 0.066529
v 3.013496 0.534916 0.066529
v -3.013399 0.541184 -0.000000
v 3.013497 0.540084 -0.000000
v -3.013400 0.536016 -0.066530
v 3.013496 0.534916 -0.066530
v -3.013403 0.520710 -0.130503
v 3.013493 0.519610 -0.130503
v -3.013407 0.495856 -0.189460
v 3.013489 0.494755 -0.189460
v -3.013413 0.462407 -0.241137
v 3.013483 0.461307 -0.241137
v -3.013421 0.421650 -0.283547
v 3.013475 0.420549 -0.283547
v -3.013429 0.375150 -0.315061
v 3.013467 0.374050 -0.315061
v -3.013438 0.324695 -0.334466
v 3.013458 0.323594 -0.334466
vn -0.0000 -0.1239 -0.9923
vn -0.0001 -0.3590 -0.9333
vn -0.0001 -0.5610 -0.8278
vn -0.0001 -0.7210 -0.6929
vn -0.0001 -0.7210 0.6929
vn -0.0001 -0.5610 0.8278
vn -0.0001 -0.3590 0.9333
vn -0.0000 -0.1239 0.9923
vn 0.0000 0.1239 0.9923
vn 0.0001 0.3590 0.9333
vn 0.0001 0.5610 0.8278
vn 0.0001 0.7210 0.6929
vn 0.0002 0.8395 0.5434
vn 0.0002 0.9215 0.3885
vn 0.0002 0.9726 0.2327
vn 0.0002 0.9970 0.0774
vn 0.0002 0.9970 -0.0774
vn 0.0002 0.9726 -0.2327
vn 0.0002 0.9215 -0.3885
vn 0.0002 0.8395 -0.5434
vn 0.0001 0.7210 -0.6929
vn 0.0001 0.5610 -0.8278
vn 1.0000 -0.0002 0.0000
vn 0.0001 0.3590 -0.9333
vn 0.0000 0.1239 -0.9923
vn -1.0000 0.0002 -0.0000
usemtl None
s off
f 1//1 2//1 4//1 3//1
f 3//2 4//2 6//2 5//2
f 5//3 6//3 8//3 7//3
f 7//4 8//4 10//4 9//4
f 25//5 26//5 28//5 27//5
f 27//6 28//6 30//6 29//6
f 29//7 30//7 32//7 31//7
f 31//8 32//8 34//8 33//8
f 33//9 34//9 36//9 35//9
f 35//10 36//10 38//10 37//10
f 37//11 38//11 40//11 39//11
f 39//12 40//12 42//12 41//12
f 41//13 42//13 44//13 43//13
f 43//14 44//14 46//14 45//14
f 45//15 46//15 48//15 47//15
f 47//16 48//16 50//16 49//16
f 49//17 50//17 52//17 51//17
f 51//18 52//18 54//18 53//18
f 53//19 54//19 56//19 55//19
f 55//20 56//20 58//20 57//20
f 57//21 58//21 60//21 59//21
f 59//22 60//22 62//22 61//22
f 4//23 2//23 64//23 62//23 60//23 58//23 56//23 54//23 52//23 50//23 48//23 46//23 44//23 42//23 40//23 38//23 36//23 34//23 32//23 30//23 28//23 26//23 24//23 22//23 20//23 18//23 16//23 14//23 12//23 10//23 8//23 6//23
f 61//24 62//24 64//24 63//24
f 63//25 64//25 2//25 1//25
f 1//26 3//26 5//26 7//26 9//26 11//26 13//26 15//26 17//26 19//26 21//26 23//26 25//26 27//26 29//26 31//26 33//26 35//26 37//26 39//26 41//26 43//26 45//26 47//26 49//26 51//26 53//26 55//26 57//26 59//26 61//26 63//26
